Coordinates
version=1
nRows=13
nColumns=34
inDegrees=yes

Units are S.I. units (second, meters, Newtons, ...)
If the header above contains a line with 'inDegrees', this indicates whether rotational values are in degrees (yes) or radians (no).

endheader
time	pelvis_tilt	pelvis_list	pelvis_rotation	pelvis_tx	pelvis_ty	pelvis_tz	hip_flexion_r	hip_adduction_r	hip_rotation_r	knee_angle_r	ankle_angle_r	subtalar_angle_r	mtp_angle_r	hip_flexion_l	hip_adduction_l	hip_rotation_l	knee_angle_l	ankle_angle_l	subtalar_angle_l	mtp_angle_l	lumbar_extension	lumbar_bending	lumbar_rotation	arm_flex_r	arm_add_r	arm_rot_r	elbow_flex_r	pro_sup_r	arm_flex_l	arm_add_l	arm_rot_l	elbow_flex_l	pro_sup_l
      3.91666670	    -12.64953897	     -2.93771377	     -7.16299998	      0.26777546	      0.74319248	     -0.24793302	     56.00453117	    -10.67992375	    -10.31136574	      3.09904331	     -9.57825717	    -24.36580078	      0.00000000	     59.10842687	      8.08042038	      1.56502276	     82.10789893	     26.92703311	    -15.36364908	      0.00000000	    -19.33666968	     -1.23834519	     -1.89134068	     55.14538803	     11.65731076	     61.74311668	    126.53770190	    105.00826766	     67.44567806	      9.87584911	     68.52482047	    127.28239687	     74.57577405
      3.93333330	    -12.50308523	     -2.56205364	     -7.31306260	      0.26841275	      0.74383863	     -0.24807545	     56.00728649	    -10.91583134	    -12.03344255	      3.09152701	    -12.73029044	    -26.02433056	      0.00000000	     58.61403671	      8.53864582	      1.40805456	     81.49811090	     26.83012595	    -15.65663912	      0.00000000	    -19.17174347	     -1.60980099	     -2.20694347	     54.83775686	     11.57349671	     61.55001709	    126.95605576	    104.80860009	     67.42709890	      9.82880906	     68.49333546	    127.47793564	     74.46566556
      3.95000000	    -12.42864759	     -2.24368379	     -7.34403379	      0.26677992	      0.74599993	     -0.24752371	     56.21761390	    -11.18364888	    -13.33628316	      3.30703568	    -14.42217693	    -25.96819459	      0.00000000	     58.16769960	      8.87239838	      1.23782496	     80.83738542	     27.02778952	    -15.72752651	      0.00000000	    -19.02589817	     -1.91849830	     -2.30326576	     54.91073128	     11.47911175	     61.39464910	    126.89332740	    104.76843163	     67.60925752	     10.05196469	     68.40401428	    127.57641192	     74.44292495
      3.96666670	    -12.30622709	     -1.97435893	     -7.54631294	      0.26792580	      0.74981963	     -0.24867510	     56.09085302	    -11.11867389	    -14.70311694	      2.90225330	    -15.62487326	    -26.11625286	      0.00000000	     57.54894416	      9.02407154	      1.14822622	     79.89937946	     26.67685719	    -15.32356266	      0.00000000	    -18.81103030	     -2.11744560	     -2.31967106	     54.71078808	     11.08799836	     60.79667421	    126.83123976	    104.70368964	     67.60933562	      9.95298374	     68.36323568	    127.79143540	     74.41345706
      3.98333330	    -12.29880461	     -2.09249372	     -7.36317803	      0.26631150	      0.75405652	     -0.24842755	     55.71559897	    -11.14591776	    -14.50743252	      2.35327256	    -15.53436362	    -26.22658222	      0.00000000	     57.58203754	      8.81308382	      1.40418422	     79.52536206	     26.48779839	    -15.10151144	      0.00000000	    -18.72037587	     -1.93675652	     -2.51035083	     54.71395874	     11.19825112	     60.54341656	    126.96604830	    104.67435600	     67.67681848	     10.19815161	     68.41777417	    127.75986255	     74.39773463
      4.00000000	    -11.99244815	     -2.48892361	     -7.21924694	      0.26567323	      0.75835400	     -0.24859221	     54.97521644	    -10.95545437	    -13.87731791	      1.82897601	    -14.72473563	    -26.10806537	      0.00000000	     56.91660033	      8.42431366	      1.76184464	     78.95991797	     26.68101095	    -14.57750316	      0.00000000	    -19.04411160	     -1.51328515	     -2.41812731	     54.57644539	     10.72177589	     59.14456184	    127.03782348	    104.51668000	     68.02941285	     10.59316333	     68.70668996	    127.54622673	     74.27296526
      4.01666670	    -11.93176746	     -2.08149118	     -7.22787834	      0.26552053	      0.75855756	     -0.24836957	     55.20995720	    -11.25749415	    -14.93444848	      2.04474139	    -15.89096520	    -25.81354286	      0.00000000	     56.72818524	      8.55853477	      1.25572316	     78.41482773	     26.87402552	    -14.68378262	      0.00000000	    -18.83673920	     -1.82120894	     -2.46813989	     54.65489039	     10.54909910	     58.93173354	    126.97983787	    104.49300766	     68.18485155	     10.62123299	     68.67695410	    127.67254963	     74.24654292
      4.03333330	    -12.03255272	     -2.16587883	     -7.11914781	      0.26522863	      0.76273135	     -0.24837582	     55.42420030	    -11.38198383	    -14.42469260	      1.90063560	    -15.90296565	    -25.90021077	      0.00000000	     56.37660534	      8.33389026	      1.40568912	     77.59945935	     27.24198110	    -14.50821472	      0.00000000	    -18.51660052	     -1.50413441	     -2.61004047	     54.72766972	      9.99426882	     57.22695311	    126.84673041	    104.35704313	     68.49720684	     10.57613172	     68.51708667	    127.78643768	     74.15460351
      4.05000000	    -12.10806135	     -2.42883869	     -7.06764860	      0.26650146	      0.77004215	     -0.24935034	     55.34223361	    -11.30732085	    -13.74415162	      1.85202276	    -15.43914112	    -25.87123686	      0.00000000	     55.65949040	      7.94440948	      1.36758887	     76.54704400	     26.94427418	    -14.22615188	      0.00000000	    -18.20603566	     -1.04804116	     -2.77766718	     54.68561994	      9.56146197	     56.43585598	    126.87643621	    104.29785532	     68.34600012	     10.64058340	     68.61743364	    127.91326379	     74.12997743
      4.06666670	    -11.87034787	     -2.86181495	     -6.81795231	      0.26766607	      0.77589647	     -0.24937012	     54.65571148	    -11.16456514	    -12.28599352	      1.64293176	    -13.55593782	    -25.27540878	      0.00000000	     54.39692148	      7.37969236	      1.32868343	     75.23600831	     27.26084282	    -13.58123991	      0.00000000	    -18.19737742	     -0.53221325	     -2.67550515	     54.27003451	      9.16673979	     54.24168434	    126.92484493	    104.11162935	     68.36400135	     10.91489612	     68.78254261	    127.93194054	     74.05235588
      4.08333330	    -11.59957110	     -3.01677153	     -6.74165220	      0.26745651	      0.78079234	     -0.24919541	     54.16849043	    -11.14058489	    -11.19026683	      1.37603718	    -11.63278779	    -23.90066315	      0.00000000	     53.27614521	      7.04353896	      1.08585898	     73.98586656	     27.44446606	    -12.83047774	      0.00000000	    -18.10370960	     -0.27203742	     -2.59895750	     54.07100518	      8.89243959	     53.33756969	    127.25216796	    104.00147925	     68.38642681	     11.05486869	     68.98468714	    127.96317669	     73.99638288
      4.10000000	    -11.57543895	     -3.11731239	     -6.90297116	      0.26928132	      0.78791347	     -0.24902581	     53.97929521	    -10.95119261	    -11.52032664	      1.47628194	    -11.33077157	    -24.08572168	      0.00000000	     52.29942071	      6.74237716	      0.86868327	     72.66912197	     26.13726613	    -12.05802438	      0.00000000	    -17.60228504	      0.01921337	     -2.45404404	     53.88945572	      8.89080359	     53.29934475	    127.27434233	    103.99066418	     68.22324530	     10.96192101	     69.05418917	    127.99451823	     73.99333982
      4.11666670	    -11.38130355	     -3.51727699	     -6.75396003	      0.27149640	      0.79480749	     -0.24981723	     53.28536613	    -10.77775676	    -10.37834707	      0.97239923	    -10.96465079	    -23.33478771	      0.00000000	     50.73283212	      6.44969654	      1.01829265	     70.80887715	     26.55437142	    -11.94137720	      0.00000000	    -17.30143148	      0.61717887	     -2.67568839	     53.40660808	      8.84045533	     52.96776324	    127.18631624	    103.96289325	     67.81850533	     10.99064054	     69.04063724	    128.08600300	     73.98819010
